# xmcd CD database file
#
# Track frame offsets:
#	150
#	13313
#	26003
#	41298
#	55018
#	70188
#	83725
#	98490
#	112908
#	127033
#	141295
#	154635
#	170118
#	183440
#	196310
#	209070
#	221395
#	234753
#	249100
#	262590
#
# Disc length: 3701 seconds
#
# Revision: 5
# Processed by: cddbd v1.5.2PL0 Copyright (c) Steve Scherf et al.
# Submitted via: CDex 1.99.1
#
DISCID=060e7314
DTITLE=Bessie Smith - Bessie Smith Empress of the Blues_  The Complete Recordings [Volume 4 Disc 1]
DYEAR=1993
DGENRE=Blues
TTITLE0=Standin' in the Rain Blues
TTITLE1=It Won't Be You
TTITLE2=Spider Man Blues
TTITLE3=Empty Bed Blues (Part 1)
TTITLE4=Empty Bed Blues (Part 2)
TTITLE5=Put It Right Here (Or Keep it Out There)
TTITLE6=Yes Indeed He Do!
TTITLE7=Devil's Gonna Git You
TTITLE8=You Ought to Be Ashamed
TTITLE9=Washwoman's Blues
TTITLE10=Slow and Easy Man
TTITLE11=Poor Man's Blues
TTITLE12=Please Help Me Get Him Out of My Mind
TTITLE13=Me and My Gin
TTITLE14=I'm Wild About That Thing
TTITLE15=You've Got to Give Me Some
TTITLE16=Kitchen Man
TTITLE17=I've Got What it Takes (But it Breaks My Heart to Give it Away)
TTITLE18=Nobody Knows You When You're Down and Out
TTITLE19=Take it Right Back ('Cause I Don't Want it Here)
EXTD=YEAR: 1993
EXTT0=
EXTT1=
EXTT2=
EXTT3=
EXTT4=
EXTT5=
EXTT6=
EXTT7=
EXTT8=
EXTT9=
EXTT10=
EXTT11=
EXTT12=
EXTT13=
EXTT14=
EXTT15=
EXTT16=
EXTT17=
EXTT18=
EXTT19=
PLAYORDER=
